<svg width="700" height="700" viewBox="0 0 700 700" fill="none" xmlns="http://www.w3.org/2000/svg">
<path d="M0 100C0 44.7715 44.7715 0 100 0H600C655.228 0 700 44.7715 700 100V600C700 655.228 655.228 700 600 700H100C44.7715 700 0 655.228 0 600V100Z" fill="white"/>
<path d="M350 569.857C345.048 569.857 340.857 568.143 337.429 564.714L159.143 392.714C157.238 391.19 154.619 388.714 151.286 385.286C147.952 381.857 142.667 375.619 135.429 366.571C128.19 357.524 121.714 348.238 116 338.714C110.286 329.19 105.19 317.667 100.714 304.143C96.2381 290.619 94 277.476 94 264.714C94 222.81 106.095 190.048 130.286 166.429C154.476 142.81 187.905 131 230.571 131C242.381 131 254.429 133.048 266.714 137.143C279 141.238 290.429 146.762 301 153.714C311.571 160.667 320.667 167.19 328.286 173.286C335.905 179.381 343.143 185.857 350 192.714C356.857 185.857 364.095 179.381 371.714 173.286C379.333 167.19 388.429 160.667 399 153.714C409.571 146.762 421 141.238 433.286 137.143C445.571 133.048 457.619 131 469.429 131C512.095 131 545.524 142.81 569.714 166.429C593.905 190.048 606 222.81 606 264.714C606 306.81 584.19 349.667 540.571 393.286L362.571 564.714C359.143 568.143 354.952 569.857 350 569.857Z" fill="url(#paint0_linear_113_61)"/>
<path fill-rule="evenodd" clip-rule="evenodd" d="M379.821 241.288C382.74 244.408 383.779 248.844 382.551 252.936L378.077 267.836C376.554 272.91 371.882 276.385 366.584 276.385H333.96C328.661 276.385 323.99 272.91 322.467 267.836L317.993 252.936C316.764 248.844 317.804 244.408 320.723 241.288L341.508 219.067C346.251 213.997 354.293 213.997 359.035 219.067L379.821 241.288ZM325.034 290.038C324.077 290.038 323.208 290.698 323.086 291.647L294.259 515.891C293.74 519.911 295.037 523.956 297.798 526.926C306.816 536.634 327.737 559.151 340.267 572.638C342.851 575.42 346.476 577 350.272 577C354.068 577 357.689 575.42 360.273 572.638C372.807 559.151 393.727 536.634 402.746 526.926C405.507 523.956 406.801 519.911 406.285 515.891L377.458 291.647C377.336 290.698 376.467 290.038 375.51 290.038H325.034Z" fill="white"/>
<path d="M260.818 131.669C306.025 144.401 350 192 350 192C350 192 302.081 243.085 278.153 268.665C275.125 271.901 270.715 273.468 266.326 272.863C261.936 272.263 258.11 269.566 256.065 265.634C244.32 243.027 241.985 179.513 241.985 151.108C241.985 146.162 241.672 140.972 245.004 136.195C248.679 130.927 255.579 130.195 260.818 131.669Z" fill="white"/>
<path d="M438.381 131.669C393.174 144.401 350 192 350 192C350 192 397.118 243.085 421.046 268.665C424.073 271.901 428.483 273.468 432.873 272.863C437.263 272.263 441.089 269.566 443.134 265.634C454.879 243.027 457.214 179.513 457.214 151.108C457.214 146.162 457.527 140.972 454.195 136.195C450.519 130.927 443.62 130.195 438.381 131.669Z" fill="white"/>
<path d="M342.5 200C342.596 199.888 342.715 199.761 342.854 199.622L350 192L355.717 198.193C355.819 198.296 355.913 198.399 356 198.5L355.717 198.193C354.645 197.112 352.74 196 350 196C347.288 196 344.167 198.315 342.854 199.622L342.5 200Z" fill="white"/>
<defs>
<linearGradient id="paint0_linear_113_61" x1="350" y1="0" x2="350" y2="700" gradientUnits="userSpaceOnUse">
<stop stop-color="#0A66C2"/>
<stop offset="1" stop-color="#105192"/>
</linearGradient>
</defs>
</svg>
